<svg width="512" height="291" viewBox="0 0 512 291" fill="none" xmlns="http://www.w3.org/2000/svg">
<path opacity="0.49" d="M392.016 104.37C288.127 104.716 224.76 59.6765 175.33 51.0102C101.058 37.9977 3.10416 71.6725 66.2741 164.833C129.444 257.993 162.181 281.687 275.922 289.635C366.976 295.996 447.183 259.544 479.093 230.452C529.113 184.938 495.944 104.024 392.016 104.37Z" fill="url(#paint0_linear_241_150)"/>
<path d="M15 231.435V195.685L96.8789 78.5896H146.369V193.094H167.616V231.435H146.369V265.113H102.061V231.435H15ZM105.17 127.293L61.6399 193.094H105.17V127.293Z" fill="#2663FF"/>
<path d="M189.319 167.965C189.319 138.26 195.019 114.858 206.42 97.76C217.993 80.662 236.563 72.113 262.129 72.113C287.694 72.113 306.177 80.662 317.578 97.76C329.152 114.858 334.939 138.26 334.939 167.965C334.939 198.016 329.152 221.591 317.578 238.689C306.177 255.787 287.694 264.336 262.129 264.336C236.563 264.336 217.993 255.787 206.42 238.689C195.019 221.591 189.319 198.016 189.319 167.965ZM291.408 167.965C291.408 150.522 289.508 137.137 285.708 127.811C281.907 118.312 274.048 113.563 262.129 113.563C250.209 113.563 242.35 118.312 238.549 127.811C234.749 137.137 232.849 150.522 232.849 167.965C232.849 179.709 233.54 189.467 234.922 197.239C236.304 204.838 239.068 211.056 243.213 215.892C247.532 220.555 253.837 222.886 262.129 222.886C270.42 222.886 276.639 220.555 280.785 215.892C285.103 211.056 287.953 204.838 289.335 197.239C290.717 189.467 291.408 179.709 291.408 167.965Z" fill="#2663FF"/>
<path d="M359.384 231.435V195.685L441.263 78.5896H490.753V193.094H512V231.435H490.753V265.113H446.445V231.435H359.384ZM449.554 127.293L406.024 193.094H449.554V127.293Z" fill="#2663FF"/>
<path d="M485.563 0H445.129C443.664 0 442.258 0.577814 441.222 1.60632C440.186 2.63482 439.604 4.02978 439.604 5.4843V30.177C439.604 31.6315 440.186 33.0265 441.222 34.055C442.258 35.0835 443.664 35.6613 445.129 35.6613H453.944L462.26 46.9509H465.346L476.721 35.6613H485.563C487.028 35.6613 488.434 35.0835 489.47 34.055C490.506 33.0265 491.089 31.6315 491.089 30.177V5.47091C491.085 4.0187 490.501 2.6272 489.465 1.60158C488.429 0.57597 487.026 -4.31946e-06 485.563 0Z" fill="url(#paint1_linear_241_150)"/>
<path d="M482.443 0H441.967C440.5 0 439.093 0.577814 438.056 1.60632C437.018 2.63482 436.436 4.02978 436.436 5.4843V30.177C436.436 31.6315 437.018 33.0265 438.056 34.055C439.093 35.0835 440.5 35.6613 441.967 35.6613H450.791L462.178 46.9509L473.565 35.6613H482.389C483.856 35.6613 485.263 35.0835 486.3 34.055C487.338 33.0265 487.921 31.6315 487.921 30.177V5.47091C487.917 4.02793 487.34 2.64446 486.315 1.62036C485.29 0.596265 483.898 0.0140738 482.443 0Z" fill="url(#paint2_linear_241_150)"/>
<path d="M463.366 49.7723C463.366 49.7723 429.389 68.4318 409.344 61.8911C389.299 55.3504 406.047 42.2558 417.418 42.2558C428.788 42.2558 435.407 79.034 435.407 79.034" stroke="#222222" stroke-width="0.5" stroke-linecap="round" stroke-linejoin="round" stroke-dasharray="3 3"/>
<path d="M415.841 67.2963C418.466 67.2963 420.594 65.019 420.594 62.2099C420.594 59.4008 418.466 57.1236 415.841 57.1236C413.217 57.1236 411.089 59.4008 411.089 62.2099C411.089 65.019 413.217 67.2963 415.841 67.2963Z" fill="#FFD46A"/>
<path d="M5.52608 22.6378H45.9595C47.425 22.6378 48.8305 23.2156 49.8668 24.2441C50.9032 25.2726 51.4854 26.6675 51.4854 28.1221V52.8148C51.4854 54.2693 50.9032 55.6642 49.8668 56.6927C48.8305 57.7212 47.425 58.2991 45.9595 58.2991H37.145L28.8292 69.5887H25.7428L14.3675 58.2991H5.52608C4.06053 58.2991 2.65499 57.7212 1.61869 56.6927C0.582382 55.6642 0.00018692 54.2693 0.00018692 52.8148V28.1087C0.00375366 26.6565 0.58754 25.265 1.62346 24.2393C2.65938 23.2137 4.06286 22.6378 5.52608 22.6378Z" fill="url(#paint3_linear_241_150)"/>
<path d="M8.64592 22.6378H49.1216C50.5887 22.6378 51.9957 23.2156 53.0331 24.2441C54.0705 25.2726 54.6533 26.6675 54.6533 28.1221V52.8148C54.6533 54.2693 54.0705 55.6642 53.0331 56.6927C51.9957 57.7212 50.5887 58.2991 49.1216 58.2991H40.2979L28.9107 69.5887L17.5236 58.2991H8.6999C7.23281 58.2991 5.8258 57.7212 4.78841 56.6927C3.75102 55.6642 3.16821 54.2693 3.16821 52.8148V28.1087C3.17169 26.6657 3.74863 25.2822 4.774 24.2581C5.79937 23.234 7.19053 22.6518 8.64592 22.6378Z" fill="url(#paint4_linear_241_150)"/>
<path d="M37 89.6131L36.9539 89.3673L37 89.6131ZM28.2501 76.6217C28.2659 77.0776 28.2971 77.5728 28.346 78.095L28.8439 78.0484C28.7958 77.5356 28.7652 77.0502 28.7499 76.6045L28.2501 76.6217ZM28.7756 81.0126C28.9684 81.9649 29.2197 82.9348 29.5397 83.8675L30.0126 83.7053C29.7009 82.7966 29.4549 81.8482 29.2657 80.9134L28.7756 81.0126ZM30.7608 86.5756C31.2965 87.4796 31.9385 88.2713 32.7048 88.8626L33.0102 88.4668C32.3069 87.9241 31.7038 87.1862 31.191 86.3207L30.7608 86.5756ZM35.5241 89.9548C36.005 89.9887 36.5121 89.9589 37.0461 89.8588L36.9539 89.3673C36.4589 89.4602 35.9947 89.4867 35.5592 89.4561L35.5241 89.9548ZM37.0461 89.8588C37.6776 89.7404 38.2172 89.5829 38.6731 89.3927L38.4807 88.9312C38.0629 89.1055 37.5579 89.2541 36.9539 89.3673L37.0461 89.8588ZM40.7175 86.7602C40.6749 85.6725 39.9325 84.5908 38.9851 83.8519L38.6776 84.2461C39.56 84.9344 40.1831 85.8935 40.2179 86.7798L40.7175 86.7602ZM35.7296 82.9292C35.1712 83.071 34.6703 83.407 34.292 83.9744L34.708 84.2518C35.019 83.7853 35.4165 83.5246 35.8527 83.4138L35.7296 82.9292ZM34.292 83.9744C34.0403 84.3519 33.8327 84.7533 33.6675 85.1734L34.1328 85.3563C34.2854 84.9682 34.4767 84.5986 34.708 84.2518L34.292 83.9744ZM33.1743 87.8054C33.1642 88.666 33.2839 89.5555 33.5234 90.4445L34.0062 90.3145C33.7775 89.4655 33.6647 88.6218 33.6743 87.8113L33.1743 87.8054ZM34.4997 92.9108C34.9011 93.6732 35.3895 94.4158 35.9589 95.1189L36.3474 94.8042C35.7983 94.1262 35.3281 93.4109 34.9421 92.6779L34.4997 92.9108ZM37.8081 97.0091C38.1415 97.2918 38.4912 97.5621 38.8566 97.8179L39.1434 97.4083C38.7907 97.1614 38.4532 96.9006 38.1315 96.6278L37.8081 97.0091ZM38.8566 97.8179C39.2545 98.0964 39.7258 98.3141 40.2512 98.4871L40.4076 98.0122C39.9144 97.8498 39.4906 97.6513 39.1434 97.4083L38.8566 97.8179ZM43.217 99.0495C44.1474 99.1452 45.1517 99.2027 46.1919 99.254L46.2166 98.7546C45.1771 98.7034 44.1843 98.6464 43.2682 98.5522L43.217 99.0495ZM49.155 99.4059C50.1382 99.4669 51.1267 99.5469 52.0967 99.6693L52.1594 99.1733C51.1749 99.049 50.1749 98.9682 49.1859 98.9069L49.155 99.4059ZM54.9837 100.202C55.9567 100.453 56.8751 100.779 57.7102 101.209L57.9388 100.764C57.0634 100.314 56.1085 99.9758 55.1085 99.718L54.9837 100.202ZM60.0142 102.916C60.6361 103.58 61.1513 104.377 61.5298 105.334L61.9948 105.151C61.5934 104.135 61.0446 103.285 60.3793 102.574L60.0142 102.916ZM62.1807 108.149C62.2263 108.611 62.25 109.098 62.25 109.613H62.75C62.75 109.083 62.7256 108.579 62.6783 108.1L62.1807 108.149Z" fill="black"/>
<path d="M44.7524 99.9894C42.1277 99.9894 40 97.7121 40 94.903C40 92.0939 42.1277 89.8167 44.7524 89.8167C47.3771 89.8167 49.5049 92.0939 49.5049 94.903C49.5049 97.7121 47.3771 99.9894 44.7524 99.9894Z" fill="#FFD46A"/>
<defs>
<linearGradient id="paint0_linear_241_150" x1="107.712" y1="138.626" x2="536.8" y2="454.926" gradientUnits="userSpaceOnUse">
<stop stop-color="#EAF1FC"/>
<stop offset="1" stop-color="#C0D4F4"/>
</linearGradient>
<linearGradient id="paint1_linear_241_150" x1="14282.9" y1="7208.84" x2="16248.6" y2="7208.84" gradientUnits="userSpaceOnUse">
<stop stop-color="#223762"/>
<stop offset="1" stop-color="#041B48"/>
</linearGradient>
<linearGradient id="paint2_linear_241_150" x1="14163.4" y1="7208.84" x2="16128.6" y2="7208.84" gradientUnits="userSpaceOnUse">
<stop stop-color="#4C93F4"/>
<stop offset="1" stop-color="#0B63DA"/>
</linearGradient>
<linearGradient id="paint3_linear_241_150" x1="-13791.8" y1="7231.48" x2="-15757.6" y2="7231.48" gradientUnits="userSpaceOnUse">
<stop stop-color="#223762"/>
<stop offset="1" stop-color="#041B48"/>
</linearGradient>
<linearGradient id="paint4_linear_241_150" x1="-13672.3" y1="7231.48" x2="-15637.5" y2="7231.48" gradientUnits="userSpaceOnUse">
<stop stop-color="#4C93F4"/>
<stop offset="1" stop-color="#0B63DA"/>
</linearGradient>
</defs>
</svg>
